<?xml version="1.0"?>
<svg baseprofile="tiny" fill="#6f9c76" height="40" stroke="#ffffff" stroke-linecap="round" stroke-linejoin="round" stroke-width=".5" version="1.2" viewBox="0 0 1000 1000" width="40" xmlns="http://www.w3.org/2000/svg">
 <g id="features">
  <path d="M723 307.1l-54.9 6.1-34.9 7.2-35 2.9-21.2-4.4-7.9-0.2-23.3 3.2-22.8-1.7-7.4 1.3-7.4 0.4-7.5 1.8-7 0.1 1.6-1-0.7-46.9 0.2-2.5 0.6-1.8 1.4-2.5 2.9-3.4 8.6-7.2-4.7-4.6-1.7-1.2-0.4-0.1-0.6 0-0.8-0.4-0.7-0.4-1.3-0.6-1.7-0.3-1.4-0.1-7.2-10.3-28.2-50.9-0.7-0.8 19.1-19.5 10.6-8.7 7.8-4.4 2-2 0.5-1.4-0.1-1.6 0.1-2.6 1.5-4.2 5.6-6.2 2-3.9 5.3-14.3-0.3-1.5-1.7-2.6-0.2-1.6 0.8-1.9 1.2-0.3 1.4 0.2 1.3-0.4 0.9-1.1 1.2-2.2 1-1 1.4-0.2 1.6 0.6 1-0.2 0.1-2.6-0.3-1.8-0.9-0.7-1.4-0.3-1.6-0.7-1.5-1.3-1-1.2-0.8-1.5-4.9-13.9-1.4-8.2-0.1-3.4 1.2-2.6 3.6-1.6 1.9-0.2 3.4 0.1 1.8-0.2 0.4-0.4 1.2-1.6 0.7-0.6 1.1 0.3 0.8 0.8 0.8 0.3 0.8-1.6 0.7-1.8 1-0.4 1.3 0.2 1.7 0 0.5 0.4 0.2 0.8 0.4 0.7 1.1-0.1 0.8-0.5 1.4-1.3 0.6-0.4 5.2-1.4 0.5 0.1 1.3 0.7 0.7 0.1 0.9-0.4 1.7-1.3 1-0.2 5.1 1.3 1.4-0.7 2-3.3 0.5-1.1 0.2-1.2 0.5-1 0.7-0.9 1.6-0.6 1.5 1 1.6-0.4 1.3-1 2.3-2.8 1.6-1.1 1.4-0.3 2.9 0.1 1.5-0.3 3.5-0.1 1.7-2.2 7 6.2 2.9 1.6 1.5 1.6 1.1 1.8 0.9 3.4 1.2 1.2 1.6 0.8 1.7 0.7 4.8 0.5 1.2 0.4 0.6 0.8 1.4 2.7 5.9 8.7 24.9 22.9 0.4 0.8 2 1.5 0.5 0.8 0.3 3.2 0.7 3.3 1.1 2.7 3.3 5.6 2.1 2.4 1.2 1.2 1.8 1.2 2 0.5 1.9-0.9 2.1-1.2 1.7 0.3 1.5 0.9 1.7 0.6 6.5 4 5.3 1.9 1.6 1.1 1.2 1.2 4.8 6.9 1 0.9 0.8 0.5 0.6 0.6 0.6 1.2 0.7 2.3 0.6 1.1 0.2 1.3 0.5 1.2 1.3 0.6 1.3 2.4 1 0.8-3.2 3.4-10 17.2-1.8 6.7-0.9 2.3-2.9 7.9 0.3 3.4 2.1 4 26 36.9 3.5 3.3 1.2 0.2 1.4-0.2 0.2 0 1.1 0 1.2 1.2-1.4 5.7 0 3.2 0.5 3 1.1 2.7 1.5 2.5 0 0.1 3 13.1-0.2 4.4-3.1 7.7-0.2 2.6 0.7 1.8 1.2 1.2 1.3 1.1 1.1 1.2 0.7 1.6 1.4 4.8 1.3 1.7 1.9 0.6 2 0.3 1.9 1.1 1.3 2.9 0.7 4.3 0 3.5z"/>
 </g>
</svg>