<?xml version="1.0" encoding="UTF-8" standalone="no"?>
<!-- Created with Inkscape (http://www.inkscape.org/) -->
<svg
   xmlns:svg="http://www.w3.org/2000/svg"
   xmlns="http://www.w3.org/2000/svg"
   version="1.0"
   width="400"
   height="650"
   id="svg1">
  <defs
     id="defs1" />
  <style
     type="text/css"
     id="style4" />
  <g
     transform="matrix(100,0,0,-100,-40,1250)"
     id="Benin">
    <path
       d="M 2.72921,8.77042 L 2.73368,8.75774 L 2.7412,8.74788 L 2.74403,8.74416 L 2.74609,8.7352 L 2.74511,8.71729 L 2.74602,8.70994 L 2.75038,8.70029 L 2.74411,8.68722 L 2.74131,8.67781 L 2.74613,8.66654 L 2.73942,8.66082 L 2.73756,8.65486 L 2.73893,8.65072 L 2.74653,8.6461 L 2.74906,8.64036 L 2.75039,8.62084 L 2.75013,8.61327 L 2.74919,8.58521 L 2.74913,8.58342 L 2.75004,8.57767 L 2.75273,8.57272 L 2.75876,8.56158 L 2.75434,8.5469 L 2.7497,8.53796 L 2.74945,8.53313 L 2.76188,8.52254 L 2.76123,8.51385 L 2.76093,8.50969 L 2.76184,8.50533 L 2.75073,8.49342 L 2.75003,8.48975 L 2.75693,8.48261 L 2.74906,8.47276 L 2.74418,8.46199 L 2.74254,8.45403 L 2.74068,8.44501 L 2.73489,8.4363 L 2.72611,8.43197 L 2.71458,8.43154 L 2.70695,8.42031 L 2.71129,8.40607 L 2.71401,8.38724 L 2.70866,8.36958 L 2.6971,8.35744 L 2.69698,8.35471 L 2.69644,8.34256 L 2.69563,8.32417 L 2.69696,8.31508 L 2.69812,8.30717 L 2.71118,8.27615 L 2.7146,8.26054 L 2.71849,8.25364 L 2.72677,8.2465 L 2.73207,8.23796 L 2.73736,8.22942 L 2.74031,8.22466 L 2.7541,8.2113 L 2.75311,8.20999 L 2.75133,8.20764 L 2.75015,8.20076 L 2.75105,8.18997 L 2.74821,8.16474 L 2.74404,8.15603 L 2.73665,8.14756 L 2.73225,8.13885 L 2.72992,8.1283 L 2.73254,8.11684 L 2.73054,8.10489 L 2.72498,8.09229 L 2.72404,8.08495 L 2.72907,8.07047 L 2.72883,8.0668 L 2.72329,8.06108 L 2.72073,8.05306 L 2.70733,8 L 2.70738,7.99821 L 2.70572,7.98053 L 2.70454,7.9681 L 2.69954,7.95267 L 2.69737,7.94206 L 2.6955,7.93082 L 2.69088,7.92624 L 2.68785,7.91338 L 2.67581,7.8932 L 2.66843,7.88978 L 2.69576,7.85479 L 2.70405,7.83743 L 2.7063,7.83271 L 2.70925,7.81709 L 2.71132,7.81317 L 2.7203,7.81085 L 2.72467,7.80762 L 2.72946,7.79222 L 2.7324,7.77222 L 2.72795,7.7449 L 2.72911,7.72289 L 2.73037,7.69918 L 2.72629,7.65718 L 2.72539,7.64796 L 2.72901,7.62291 L 2.72805,7.61005 L 2.72901,7.59719 L 2.73028,7.58017 L 2.73623,7.56522 L 2.74611,7.55577 L 2.74769,7.54704 L 2.74607,7.54015 L 2.74948,7.5275 L 2.75476,7.52128 L 2.76213,7.51896 L 2.77523,7.51065 L 2.78603,7.49867 L 2.78859,7.49713 L 2.79292,7.49452 L 2.79819,7.48255 L 2.79968,7.43797 L 2.79919,7.42648 L 2.79572,7.42327 L 2.78581,7.4187 L 2.76278,7.41923 L 2.75702,7.41718 L 2.7496,7.41738 L 2.74758,7.41743 L 2.74744,7.36596 L 2.75005,7.31102 L 2.74886,7.29379 L 2.74887,7.29322 L 2.74946,7.26115 L 2.7506,7.25747 L 2.75657,7.25101 L 2.76209,7.24825 L 2.77425,7.23442 L 2.78099,7.19675 L 2.78355,7.18245 L 2.78379,7.17818 L 2.78487,7.15922 L 2.77534,7.12822 L 2.76726,7.11698 L 2.75065,7.10576 L 2.74511,7.09911 L 2.74509,7.09267 L 2.75288,7.07725 L 2.75891,7.07092 L 2.76298,7.06665 L 2.76712,7.06525 L 2.78182,7.05372 L 2.7926,7.04127 L 2.78545,7.03646 L 2.77509,7.03351 L 2.76655,7.02641 L 2.75295,7.01932 L 2.74326,7.01245 L 2.72919,6.998 L 2.72729,6.99545 L 2.72064,6.98653 L 2.71821,6.94033 L 2.71952,6.93637 L 2.72004,6.9348 L 2.72693,6.93042 L 2.74787,6.92829 L 2.75151,6.91241 L 2.75131,6.90681 L 2.75087,6.89471 L 2.75052,6.88506 L 2.74377,6.85656 L 2.74411,6.85294 L 2.74466,6.84713 L 2.74924,6.8393 L 2.72983,6.80855 L 2.72797,6.80165 L 2.72932,6.79015 L 2.73274,6.77864 L 2.73354,6.77699 L 2.73915,6.76529 L 2.74467,6.76366 L 2.75179,6.75904 L 2.76237,6.75763 L 2.77871,6.7592 L 2.78629,6.75458 L 2.78794,6.75125 L 2.7895,6.74813 L 2.7897,6.73893 L 2.78598,6.7233 L 2.78659,6.69479 L 2.7849,6.69327 L 2.76998,6.67989 L 2.76076,6.67416 L 2.75246,6.66568 L 2.73143,6.63078 L 2.73597,6.60869 L 2.74269,6.58944 L 2.74464,6.58383 L 2.75312,6.57047 L 2.75056,6.55736 L 2.74293,6.54543 L 2.72933,6.53442 L 2.72471,6.52639 L 2.72029,6.50777 L 2.71977,6.49488 L 2.71951,6.48817 L 2.7193,6.48293 L 2.71833,6.4766 L 2.71743,6.47075 L 2.71071,6.45259 L 2.70628,6.4256 L 2.7083,6.40936 L 2.70841,6.40568 L 2.7096,6.36882 L 2.69004,6.36495 L 2.6652,6.36359 L 2.60346,6.3559 L 2.58079,6.35307 L 2.54653,6.35194 L 2.51801,6.34851 L 2.48348,6.34664 L 2.47748,6.34631 L 2.47615,6.34624 L 2.4451,6.34119 L 2.40922,6.33937 L 2.36296,6.33926 L 2.35149,6.33923 L 2.32758,6.33918 L 2.28917,6.33321 L 2.27245,6.33184 L 2.22572,6.328 L 2.22224,6.32771 L 2.17901,6.31783 L 2.12473,6.31439 L 2.10098,6.30966 L 2.06011,6.30151 L 1.98964,6.29039 L 1.97638,6.28829 L 1.95525,6.28495 L 1.90098,6.27988 L 1.87062,6.2785 L 1.85095,6.27417 L 1.8382,6.27136 L 1.79727,6.26514 L 1.74853,6.25294 L 1.72705,6.24961 L 1.70392,6.24602 L 1.69403,6.24671 L 1.68851,6.24556 L 1.67863,6.24049 L 1.66598,6.23864 L 1.64782,6.23289 L 1.63563,6.2315 L 1.62781,6.22575 L 1.62956,6.24236 L 1.64567,6.24809 L 1.65602,6.24876 L 1.6682,6.2476 L 1.6804,6.25448 L 1.68983,6.25331 L 1.6942,6.25699 L 1.70984,6.25719 L 1.72226,6.26109 L 1.73656,6.26466 L 1.74898,6.27111 L 1.76392,6.2718 L 1.76898,6.2748 L 1.7699,6.28216 L 1.77841,6.28147 L 1.79933,6.28056 L 1.80669,6.28424 L 1.80186,6.29068 L 1.79542,6.29321 L 1.78921,6.30286 L 1.79748,6.30724 L 1.79794,6.31276 L 1.7915,6.32702 L 1.78805,6.32885 L 1.78275,6.33898 L 1.78459,6.33944 L 1.78781,6.34381 L 1.78919,6.35048 L 1.78389,6.36497 L 1.78015,6.37233 L 1.77234,6.3774 L 1.77075,6.39166 L 1.77421,6.39442 L 1.76938,6.39834 L 1.7694,6.41168 L 1.77493,6.41305 L 1.77608,6.41604 L 1.77309,6.41972 L 1.76138,6.42825 L 1.75982,6.43039 L 1.75518,6.43678 L 1.7529,6.45081 L 1.74716,6.45404 L 1.7467,6.45749 L 1.75029,6.46001 L 1.75062,6.46392 L 1.74314,6.4701 L 1.74103,6.47306 L 1.74037,6.47398 L 1.73669,6.47306 L 1.73393,6.47581 L 1.73714,6.48111 L 1.73484,6.48547 L 1.73024,6.48639 L 1.7284,6.49053 L 1.72909,6.49605 L 1.72794,6.49835 L 1.72403,6.49812 L 1.72081,6.49398 L 1.71759,6.49329 L 1.71275,6.4995 L 1.70631,6.49582 L 1.70309,6.49857 L 1.69573,6.50041 L 1.69389,6.50432 L 1.69435,6.50961 L 1.69664,6.51306 L 1.70171,6.51306 L 1.70193,6.51536 L 1.70077,6.53675 L 1.69645,6.54225 L 1.69571,6.54319 L 1.69801,6.54802 L 1.69639,6.55262 L 1.68857,6.55193 L 1.68397,6.56043 L 1.67339,6.55583 L 1.67017,6.55606 L 1.66855,6.55766 L 1.66602,6.56295 L 1.67361,6.57285 L 1.6759,6.57998 L 1.67429,6.58319 L 1.67107,6.58503 L 1.66302,6.58388 L 1.65703,6.57898 L 1.65543,6.57767 L 1.65129,6.57836 L 1.65075,6.5789 L 1.64083,6.58254 L 1.6344,6.59681 L 1.63003,6.5982 L 1.62382,6.59637 L 1.61715,6.59684 L 1.6098,6.60582 L 1.60911,6.60881 L 1.61073,6.61386 L 1.60913,6.61962 L 1.60247,6.62745 L 1.60294,6.63688 L 1.60846,6.63894 L 1.61123,6.64192 L 1.60284,6.66628 L 1.5944,6.67468 L 1.58957,6.68388 L 1.57875,6.68502 L 1.5753,6.68847 L 1.57392,6.68824 L 1.57691,6.69353 L 1.58128,6.69399 L 1.58541,6.70089 L 1.59001,6.70343 L 1.59208,6.70641 L 1.59116,6.71768 L 1.59136,6.71886 L 1.59218,6.72354 L 1.59253,6.7255 L 1.60012,6.7262 L 1.60334,6.73195 L 1.6084,6.73655 L 1.61691,6.74 L 1.62036,6.74368 L 1.6169,6.7492 L 1.61874,6.75334 L 1.6261,6.76024 L 1.62288,6.76392 L 1.61524,6.76685 L 1.61091,6.76851 L 1.60838,6.77127 L 1.60791,6.78162 L 1.61273,6.79242 L 1.61066,6.79817 L 1.60721,6.80024 L 1.59892,6.79977 L 1.59852,6.80094 L 1.59662,6.80644 L 1.59845,6.81219 L 1.60926,6.81955 L 1.61478,6.82507 L 1.61317,6.82875 L 1.60397,6.82714 L 1.59959,6.83012 L 1.60189,6.84484 L 1.60142,6.85289 L 1.5974,6.85987 L 1.5952,6.86369 L 1.59451,6.86898 L 1.59726,6.87473 L 1.60669,6.88347 L 1.60416,6.89059 L 1.60553,6.89795 L 1.60622,6.90186 L 1.60507,6.90577 L 1.58761,6.91304 L 1.58688,6.91335 L 1.58066,6.91817 L 1.5779,6.923 L 1.57697,6.92966 L 1.57411,6.94711 L 1.55961,6.97147 L 1.55918,6.97219 L 1.55783,6.99748 L 1.58637,6.9979 L 1.58867,6.99468 L 1.5935,6.99352 L 1.60663,6.99649 L 1.64203,6.99457 L 1.64165,7.0085 L 1.63817,7.13483 L 1.63812,7.13691 L 1.63801,7.22977 L 1.63617,7.26114 L 1.63566,7.2698 L 1.63669,7.27253 L 1.63522,7.37939 L 1.63546,7.38726 L 1.63589,7.40091 L 1.63642,7.41777 L 1.64388,7.48555 L 1.64827,7.49244 L 1.65334,7.4945 L 1.66736,7.49462 L 1.67568,7.49469 L 1.67752,7.49791 L 1.67614,7.50386 L 1.67592,7.5048 L 1.67501,7.50609 L 1.67226,7.50996 L 1.66971,7.51355 L 1.66834,7.51768 L 1.66161,7.52005 L 1.65982,7.52068 L 1.65563,7.52879 L 1.65293,7.53402 L 1.64972,7.54827 L 1.64837,7.56757 L 1.64994,7.60173 L 1.6505,7.61398 L 1.642,7.63116 L 1.63741,7.64042 L 1.63145,7.66111 L 1.63079,7.68983 L 1.63244,7.72407 L 1.63624,7.80307 L 1.63534,7.8118 L 1.63052,7.82697 L 1.6303,7.84006 L 1.63064,7.84946 L 1.63222,7.89265 L 1.63407,7.90115 L 1.6327,7.90988 L 1.63567,7.97532 L 1.63626,7.98842 L 1.6355,8 L 1.6353,8.07069 L 1.6349,8.11726 L 1.63428,8.16109 L 1.63445,8.17601 L 1.63415,8.1934 L 1.63387,8.20928 L 1.63347,8.31898 L 1.63177,8.34125 L 1.62428,8.35314 L 1.6215,8.36595 L 1.61974,8.3741 L 1.62226,8.3819 L 1.62243,8.38512 L 1.62294,8.39476 L 1.62775,8.41428 L 1.62658,8.42897 L 1.63119,8.43402 L 1.63302,8.43954 L 1.6302,8.44951 L 1.64583,8.46961 L 1.65019,8.47766 L 1.64898,8.49074 L 1.64086,8.50403 L 1.63112,8.51868 L 1.63104,8.54141 L 1.63024,8.58731 L 1.63024,8.58731 L 1.63016,8.59169 L 1.63023,8.63509 L 1.62857,8.64771 L 1.63037,8.66011 L 1.6312,8.68629 L 1.63154,8.71315 L 1.63173,8.72854 L 1.63161,8.76206 L 1.63311,8.79375 L 1.63163,8.82085 L 1.62928,8.82934 L 1.63129,8.84726 L 1.63086,8.87251 L 1.63071,8.88124 L 1.62966,8.90897 L 1.62824,8.91367 L 1.62785,8.91943 L 1.62635,8.94169 L 1.62241,8.95455 L 1.62519,8.97108 L 1.62539,8.97224 L 1.62423,8.97476 L 1.62974,8.99911 L 1.62795,9.01485 L 1.62483,9.04229 L 1.62427,9.04362 L 1.61602,9.06341 L 1.61689,9.06779 L 1.6176,9.07092 L 1.60564,9.09727 L 1.59772,9.11149 L 1.58217,9.12774 L 1.57915,9.13163 L 1.55912,9.17015 L 1.55378,9.17519 L 1.52597,9.1907 L 1.50251,9.21449 L 1.483,9.23348 L 1.47767,9.23691 L 1.47511,9.24104 L 1.46209,9.25477 L 1.45975,9.26234 L 1.45322,9.27448 L 1.45008,9.27893 L 1.4474,9.28273 L 1.43123,9.29781 L 1.42092,9.30743 L 1.41046,9.32946 L 1.40807,9.33449 L 1.40312,9.35491 L 1.40258,9.37168 L 1.40207,9.38316 L 1.40016,9.39487 L 1.40173,9.40683 L 1.4016,9.41302 L 1.40134,9.4254 L 1.40114,9.43462 L 1.39445,9.481 L 1.39021,9.4973 L 1.37449,9.49103 L 1.3648,9.48524 L 1.36239,9.48598 L 1.36109,9.48637 L 1.35852,9.49119 L 1.3589,9.50865 L 1.34535,9.53478 L 1.34159,9.54626 L 1.34937,9.56582 L 1.35578,9.58193 L 1.36035,9.59459 L 1.36606,9.61139 L 1.36658,9.64862 L 1.3693,9.6615 L 1.36311,9.69846 L 1.36292,9.73845 L 1.36454,9.78832 L 1.36259,9.80854 L 1.3612,9.85358 L 1.36068,9.87058 L 1.35913,9.90527 L 1.35872,9.91389 L 1.35861,9.91631 L 1.35823,9.94779 L 1.35591,9.98784 L 1.3552,10 L 1.33799,10.0109 L 1.3124,10.02573 L 1.29564,10.03667 L 1.27913,10.0451 L 1.26005,10.05696 L 1.17331,10.10765 L 1.14811,10.12238 L 1.13857,10.12646 L 1.08803,10.15884 L 1.06356,10.17663 L 1.05681,10.17934 L 1.05261,10.18346 L 1.04563,10.1871 L 1.03746,10.19395 L 1.02674,10.20102 L 1.01626,10.20763 L 1.0081,10.21424 L 1.00111,10.21857 L 0.99834,10.22083 L 0.99691,10.22199 L 0.93255,10.26897 L 0.90549,10.2888 L 0.89754,10.29424 L 0.8838,10.30361 L 0.87493,10.31068 L 0.8299,10.34351 L 0.79769,10.36652 L 0.78951,10.37452 L 0.78298,10.37791 L 0.77457,10.38476 L 0.77585,10.40131 L 0.77486,10.41119 L 0.77836,10.44225 L 0.78271,10.4862 L 0.78288,10.49584 L 0.78195,10.49584 L 0.78323,10.51218 L 0.78713,10.51887 L 0.7935,10.5396 L 0.80081,10.55781 L 0.80626,10.57808 L 0.80756,10.59096 L 0.80811,10.61303 L 0.80582,10.64336 L 0.80104,10.66173 L 0.79979,10.66882 L 0.79693,10.68491 L 0.80094,10.71227 L 0.80182,10.71828 L 0.80824,10.73189 L 0.81909,10.74438 L 0.85163,10.78297 L 0.86783,10.79526 L 0.87382,10.80495 L 0.88145,10.84892 L 0.88508,10.86182 L 0.90098,10.88673 L 0.89862,10.89248 L 0.8908,10.9138 L 0.89052,10.92094 L 0.89944,10.94514 L 0.89985,10.95364 L 0.90739,10.97622 L 0.91215,10.99648 L 0.92156,11.01746 L 0.94451,11.03393 L 0.94887,11.03583 L 0.96297,11.04947 L 0.96272,11.05176 L 0.96505,11.05199 L 0.96992,11.05799 L 0.97129,11.06444 L 0.97009,11.07455 L 0.97192,11.08215 L 0.97725,11.08884 L 0.97864,11.09045 L 0.98167,11.09068 L 0.98424,11.08885 L 0.98916,11.08037 L 0.99915,11.08569 L 1.00917,11.08572 L 1.01313,11.08344 L 1.01435,11.0819 L 1.01641,11.07931 L 1.02205,11.06323 L 1.02978,11.05267 L 1.03514,11.04948 L 1.04306,11.04905 L 1.06491,11.05877 L 1.06957,11.05901 L 1.07065,11.05786 L 1.07448,11.05374 L 1.08473,11.0517 L 1.09102,11.04874 L 1.10013,11.04163 L 1.11017,11.0304 L 1.11578,11.03819 L 1.11597,11.03847 L 1.11526,11.04122 L 1.10989,11.04626 L 1.09961,11.05658 L 1.09983,11.06256 L 1.0977,11.06471 L 1.09352,11.06898 L 1.09651,11.07841 L 1.09578,11.07993 L 1.093,11.08576 L 1.08646,11.08988 L 1.08645,11.09264 L 1.09016,11.09978 L 1.08455,11.10505 L 1.08662,11.11333 L 1.08311,11.11769 L 1.07821,11.11883 L 1.07377,11.12594 L 1.06723,11.12891 L 1.06654,11.1273 L 1.06818,11.12339 L 1.06471,11.11878 L 1.06005,11.11969 L 1.05327,11.12473 L 1.05094,11.12771 L 1.05465,11.13186 L 1.05276,11.13943 L 1.05554,11.14313 L 1.06042,11.14568 L 1.0914,11.14531 L 1.09404,11.14629 L 1.09699,11.14739 L 1.11183,11.1663 L 1.11833,11.17161 L 1.12532,11.17323 L 1.14116,11.17374 L 1.14701,11.16387 L 1.15051,11.16135 L 1.15137,11.16132 L 1.15587,11.16113 L 1.15903,11.16357 L 1.16005,11.16437 L 1.15514,11.16988 L 1.15047,11.17561 L 1.15254,11.18136 L 1.14973,11.18893 L 1.15249,11.19838 L 1.14852,11.20319 L 1.15153,11.20757 L 1.14943,11.21078 L 1.15569,11.21907 L 1.15637,11.22392 L 1.15357,11.22758 L 1.14331,11.23124 L 1.1363,11.23695 L 1.12903,11.25166 L 1.12925,11.25648 L 1.13644,11.26594 L 1.14202,11.27032 L 1.14784,11.2708 L 1.15274,11.26804 L 1.15952,11.26117 L 1.16861,11.26073 L 1.17369,11.26176 L 1.17676,11.26237 L 1.18119,11.26169 L 1.18516,11.25871 L 1.19099,11.2585 L 1.19844,11.26059 L 1.20612,11.26083 L 1.21196,11.25832 L 1.2229,11.26019 L 1.22803,11.25928 L 1.24206,11.24979 L 1.24834,11.24554 L 1.25207,11.24532 L 1.26043,11.25431 L 1.27393,11.25986 L 1.27601,11.26378 L 1.27625,11.26424 L 1.27343,11.27366 L 1.2741,11.28332 L 1.27082,11.28951 L 1.26593,11.28996 L 1.2636,11.28835 L 1.26384,11.28581 L 1.26945,11.28008 L 1.26667,11.2764 L 1.26177,11.27708 L 1.25826,11.28098 L 1.25474,11.28993 L 1.25496,11.29799 L 1.25304,11.30437 L 1.25213,11.3074 L 1.25259,11.312 L 1.2556,11.31821 L 1.25909,11.32098 L 1.26585,11.32124 L 1.27471,11.31712 L 1.28289,11.31023 L 1.29039,11.29324 L 1.30158,11.29189 L 1.30366,11.3004 L 1.30808,11.3011 L 1.31158,11.29927 L 1.31463,11.2926 L 1.32512,11.28987 L 1.32675,11.29102 L 1.33138,11.30116 L 1.33837,11.30531 L 1.34092,11.30807 L 1.34092,11.31129 L 1.33474,11.31953 L 1.3318,11.32346 L 1.33201,11.3315 L 1.32641,11.33471 L 1.32055,11.34895 L 1.3217,11.3531 L 1.31796,11.35906 L 1.32005,11.36275 L 1.32331,11.36368 L 1.3352,11.36233 L 1.34055,11.36395 L 1.34428,11.36694 L 1.34357,11.37177 L 1.35194,11.38145 L 1.35099,11.38719 L 1.35276,11.38924 L 1.35378,11.39042 L 1.35681,11.3902 L 1.35939,11.38515 L 1.36195,11.38469 L 1.37266,11.39023 L 1.37521,11.39736 L 1.38826,11.39945 L 1.39058,11.40269 L 1.38988,11.40659 L 1.38538,11.40871 L 1.38358,11.40957 L 1.38286,11.41578 L 1.37982,11.42336 L 1.38444,11.44222 L 1.4033,11.45284 L 1.40773,11.45422 L 1.41426,11.45148 L 1.41915,11.45241 L 1.42164,11.45525 L 1.42218,11.45586 L 1.42566,11.46622 L 1.43102,11.46622 L 1.4345,11.47221 L 1.4401,11.47383 L 1.44313,11.47222 L 1.44618,11.46487 L 1.45155,11.46259 L 1.46017,11.46352 L 1.46786,11.46652 L 1.47581,11.45412 L 1.48024,11.45458 L 1.49468,11.46587 L 1.50121,11.46635 L 1.50939,11.45647 L 1.51848,11.45441 L 1.52385,11.44982 L 1.53179,11.4473 L 1.53715,11.44778 L 1.54134,11.45054 L 1.54692,11.46021 L 1.55064,11.47056 L 1.55364,11.47131 L 1.55436,11.47149 L 1.5567,11.46988 L 1.55998,11.4623 L 1.56791,11.45724 L 1.56839,11.4469 L 1.57236,11.44437 L 1.57889,11.44347 L 1.5803,11.43932 L 1.57448,11.42989 L 1.58311,11.42783 L 1.58929,11.42177 L 1.58988,11.42117 L 1.59082,11.41797 L 1.58968,11.40324 L 1.59295,11.39819 L 1.59972,11.39474 L 1.6137,11.39407 L 1.61864,11.39139 L 1.62047,11.3904 L 1.62513,11.39086 L 1.62886,11.39294 L 1.63747,11.40146 L 1.64049,11.40198 L 1.64283,11.40238 L 1.64493,11.4004 L 1.6489,11.39664 L 1.65846,11.39573 L 1.66312,11.39642 L 1.67035,11.40057 L 1.68338,11.41415 L 1.68756,11.41438 L 1.68758,11.41438 L 1.69295,11.40933 L 1.69971,11.40796 L 1.70321,11.41003 L 1.7074,11.41533 L 1.71414,11.42912 L 1.71741,11.42982 L 1.72208,11.42315 L 1.7293,11.42385 L 1.73374,11.42178 L 1.73654,11.41742 L 1.7398,11.4165 L 1.74796,11.42018 L 1.75152,11.41742 L 1.75239,11.41673 L 1.75565,11.4172 L 1.75845,11.42226 L 1.76381,11.42249 L 1.76467,11.42222 L 1.76651,11.42161 L 1.7736,11.41927 L 1.77733,11.42204 L 1.78316,11.42181 L 1.78736,11.4248 L 1.79528,11.42642 L 1.79784,11.43172 L 1.8025,11.43585 L 1.80717,11.43655 L 1.82162,11.43288 L 1.82815,11.43426 L 1.83561,11.43817 L 1.84167,11.44438 L 1.84563,11.44461 L 1.84663,11.44166 L 1.84701,11.44054 L 1.84773,11.43841 L 1.85193,11.43887 L 1.86732,11.4453 L 1.87268,11.44577 L 1.87753,11.44247 L 1.88415,11.43797 L 1.89238,11.43961 L 1.91245,11.43069 L 1.93462,11.42522 L 1.95398,11.42136 L 1.95631,11.42021 L 1.95678,11.42047 L 1.95887,11.4216 L 1.96924,11.4209 L 1.98196,11.42004 L 2.0104,11.42332 L 2.01925,11.4277 L 2.02512,11.43371 L 2.03414,11.44292 L 2.06043,11.46987 L 2.07322,11.48369 L 2.08006,11.48965 L 2.08058,11.4901 L 2.09068,11.49889 L 2.10302,11.51295 L 2.14469,11.55418 L 2.15726,11.5696 L 2.16634,11.57697 L 2.18544,11.59724 L 2.19313,11.60069 L 2.202,11.60001 L 2.2062,11.60094 L 2.21878,11.6097 L 2.25746,11.64792 L 2.2887,11.66566 L 2.30573,11.67442 L 2.30969,11.6797 L 2.30959,11.6808 L 2.30478,11.68286 L 2.30384,11.68584 L 2.30416,11.68707 L 2.30666,11.69688 L 2.30084,11.70839 L 2.30003,11.71454 L 2.29922,11.72081 L 2.30249,11.7254 L 2.30367,11.73528 L 2.31395,11.74609 L 2.3191,11.7562 L 2.32891,11.76124 L 2.33584,11.76788 L 2.33826,11.7702 L 2.33966,11.77341 L 2.34038,11.78536 L 2.34995,11.78927 L 2.37089,11.79288 L 2.37237,11.79314 L 2.37215,11.79797 L 2.3709,11.79928 L 2.36818,11.80212 L 2.37006,11.80694 L 2.36773,11.81338 L 2.37007,11.81821 L 2.38106,11.82371 L 2.38316,11.82761 L 2.38247,11.82992 L 2.37803,11.83084 L 2.37546,11.83337 L 2.3743,11.83705 L 2.37548,11.84441 L 2.37923,11.85406 L 2.38905,11.86279 L 2.40026,11.86713 L 2.40261,11.87058 L 2.40238,11.8745 L 2.39973,11.87943 L 2.39446,11.88922 L 2.39714,11.89546 L 2.40241,11.8961 L 2.40475,11.89794 L 2.40539,11.90161 L 2.40539,11.90161 L 2.40616,11.90598 L 2.40477,11.90968 L 2.39917,11.91382 L 2.39848,11.92072 L 2.39008,11.93085 L 2.39056,11.93407 L 2.39523,11.93522 L 2.39674,11.94138 L 2.39781,11.94579 L 2.40138,11.95257 L 2.40156,11.9529 L 2.40787,11.94991 L 2.41254,11.94944 L 2.42002,11.95518 L 2.43123,11.95538 L 2.43358,11.95883 L 2.43102,11.9701 L 2.43267,11.97516 L 2.43711,11.97653 L 2.44272,11.98228 L 2.44646,11.98203 L 2.4551,11.97581 L 2.45884,11.97626 L 2.46094,11.97948 L 2.46571,11.9846 L 2.46609,11.98817 L 2.46842,11.99461 L 2.46677,12.01095 L 2.46372,12.02382 L 2.45998,12.0321 L 2.45554,12.03645 L 2.44992,12.04565 L 2.44501,12.05163 L 2.43729,12.0668 L 2.42278,12.08955 L 2.41201,12.11117 L 2.39983,12.14265 L 2.39254,12.18266 L 2.38807,12.21853 L 2.38548,12.23554 L 2.38734,12.24221 L 2.40371,12.24936 L 2.42546,12.25143 L 2.4306,12.25535 L 2.43455,12.26323 L 2.43828,12.26282 L 2.44668,12.25636 L 2.45194,12.25427 L 2.45253,12.25404 L 2.45604,12.2545 L 2.45861,12.25726 L 2.46214,12.27013 L 2.46237,12.27032 L 2.46449,12.27219 L 2.4701,12.27194 L 2.47548,12.26987 L 2.48273,12.27077 L 2.49442,12.26868 L 2.49958,12.2758 L 2.50566,12.2774 L 2.50802,12.28867 L 2.51107,12.29372 L 2.51113,12.29372 L 2.51434,12.2944 L 2.52032,12.28783 L 2.52251,12.28542 L 2.53023,12.28172 L 2.53606,12.27457 L 2.54238,12.27756 L 2.55917,12.28169 L 2.5618,12.28235 L 2.56998,12.28049 L 2.5735,12.28209 L 2.57733,12.2886 L 2.57796,12.28967 L 2.5878,12.29976 L 2.59598,12.29722 L 2.60184,12.29996 L 2.60862,12.30087 L 2.61656,12.29578 L 2.62498,12.29485 L 2.65283,12.30328 L 2.65957,12.30387 L 2.66313,12.30418 L 2.66944,12.30163 L 2.67098,12.30044 L 2.67598,12.29655 L 2.6797,12.29102 L 2.68201,12.27953 L 2.68623,12.28066 L 2.6881,12.28272 L 2.69582,12.29862 L 2.70527,12.31809 L 2.71588,12.34933 L 2.72338,12.35506 L 2.72878,12.36263 L 2.73293,12.36217 L 2.75597,12.39008 L 2.77517,12.411 L 2.79225,12.4165 L 2.79459,12.41834 L 2.80047,12.41786 L 2.80582,12.41742 L 2.81916,12.41373 L 2.83249,12.40751 L 2.836,12.4052 L 2.8424,12.4023 L 2.85729,12.39553 L 2.86664,12.38977 L 2.89049,12.36721 L 2.91643,12.33913 L 2.9412,12.31426 L 2.95849,12.29448 L 2.97181,12.28893 L 2.9814,12.28593 L 2.98397,12.28403 L 2.99356,12.27689 L 2.99565,12.27534 L 3.0015,12.27233 L 3.01512,12.25111 L 3.01982,12.23682 L 3.03342,12.22462 L 3.04895,12.21072 L 3.05333,12.19691 L 3.05682,12.19069 L 3.06124,12.18652 L 3.08216,12.17525 L 3.08574,12.17332 L 3.10581,12.16519 L 3.10533,12.16267 L 3.11092,12.15736 L 3.12119,12.1534 L 3.12,12.14674 L 3.12091,12.14053 L 3.12486,12.13637 L 3.1433,12.12801 L 3.15238,12.12154 L 3.16891,12.1056 L 3.17891,12.09475 L 3.18983,12.07975 L 3.19645,12.07342 L 3.20055,12.0695 L 3.20938,12.06104 L 3.21684,12.05687 L 3.22476,12.05016 L 3.22865,12.045 L 3.22912,12.04439 L 3.23521,12.03632 L 3.25523,12.0199 L 3.26175,12.01619 L 3.26056,12.0116 L 3.24857,11.99417 L 3.26253,11.98238 L 3.26879,11.97292 L 3.27248,11.96255 L 3.27565,11.9407 L 3.27751,11.93816 L 3.28333,11.93514 L 3.29102,11.93143 L 3.29181,11.92875 L 3.30206,11.89413 L 3.30763,11.88766 L 3.32187,11.88575 L 3.32538,11.8878 L 3.33938,11.8852 L 3.35203,11.88754 L 3.37094,11.89102 L 3.38398,11.88451 L 3.40477,11.88394 L 3.412,11.88075 L 3.42739,11.86646 L 3.43998,11.86046 L 3.45516,11.85972 L 3.46848,11.86289 L 3.47602,11.85977 L 3.47688,11.85941 L 3.48503,11.85433 L 3.49597,11.84165 L 3.50296,11.83704 L 3.51438,11.82462 L 3.51967,11.80433 L 3.52267,11.79218 L 3.5263,11.78343 L 3.54142,11.77999 L 3.55141,11.78024 L 3.55857,11.7766 L 3.56064,11.77016 L 3.55946,11.7651 L 3.55031,11.75134 L 3.54842,11.74376 L 3.5498,11.738 L 3.55514,11.73039 L 3.57025,11.71726 L 3.59915,11.70126 L 3.60507,11.69697 L 3.60052,11.69231 L 3.60005,11.69183 L 3.59159,11.67461 L 3.58639,11.65669 L 3.57818,11.64339 L 3.56596,11.617 L 3.56124,11.60161 L 3.54915,11.5453 L 3.53563,11.47637 L 3.52187,11.41537 L 3.51386,11.37987 L 3.50109,11.32265 L 3.49587,11.29233 L 3.54003,11.25492 L 3.55374,11.24477 L 3.56744,11.23206 L 3.58022,11.22144 L 3.62598,11.18266 L 3.66754,11.148 L 3.69193,11.12814 L 3.70846,11.12807 L 3.71754,11.12781 L 3.72591,11.12408 L 3.72752,11.11765 L 3.72398,11.10616 L 3.71981,11.08767 L 3.71947,11.08617 L 3.72036,11.07491 L 3.72312,11.06708 L 3.72402,11.05742 L 3.72117,11.04295 L 3.71717,11.03468 L 3.7169,11.02434 L 3.71899,11.02318 L 3.73016,11.02152 L 3.7362,11.01897 L 3.75177,11.01063 L 3.7587,10.99841 L 3.76624,10.9632 L 3.76758,10.95078 L 3.77122,10.93076 L 3.77117,10.91904 L 3.769,10.89882 L 3.76404,10.88136 L 3.75486,10.85612 L 3.7492,10.83752 L 3.74938,10.82555 L 3.75283,10.81566 L 3.75746,10.8092 L 3.76092,10.80137 L 3.77248,10.78454 L 3.77847,10.77255 L 3.78444,10.75459 L 3.79716,10.73546 L 3.81269,10.72321 L 3.8331,10.7123 L 3.84098,10.70492 L 3.84395,10.69295 L 3.84548,10.67088 L 3.84802,10.66765 L 3.849,10.64993 L 3.85104,10.61337 L 3.8517,10.60578 L 3.85097,10.59981 L 3.84837,10.58878 L 3.83178,10.56863 L 3.82003,10.53972 L 3.81487,10.52779 L 3.80616,10.503 L 3.80098,10.48531 L 3.80117,10.47565 L 3.80201,10.4568 L 3.79917,10.44279 L 3.786,10.40537 L 3.77557,10.41071 L 3.76932,10.41579 L 3.76074,10.41859 L 3.74984,10.42439 L 3.7306,10.43388 L 3.71646,10.44267 L 3.69513,10.4538 L 3.68771,10.45635 L 3.66582,10.44311 L 3.64604,10.43513 L 3.63765,10.42759 L 3.63181,10.41727 L 3.63273,10.4145 L 3.63452,10.39703 L 3.6338,10.39036 L 3.63006,10.38302 L 3.6263,10.3736 L 3.6144,10.35571 L 3.60315,10.32748 L 3.58417,10.27837 L 3.58462,10.27515 L 3.59221,10.25327 L 3.59774,10.24177 L 3.61253,10.22172 L 3.62318,10.21409 L 3.6463,10.18941 L 3.65533,10.18408 L 3.6725,10.18378 L 3.67805,10.17825 L 3.67895,10.16975 L 3.67588,10.15597 L 3.67609,10.14929 L 3.67327,10.14218 L 3.6681,10.12244 L 3.66293,10.10706 L 3.65828,10.10316 L 3.64644,10.10161 L 3.64086,10.09795 L 3.63621,10.09659 L 3.62924,10.09316 L 3.62861,10.09258 L 3.62703,10.09109 L 3.62365,10.0879 L 3.61572,10.07597 L 3.6115,10.06244 L 3.61097,10.0452 L 3.61205,10.02106 L 3.61109,10.01256 L 3.61139,10 L 3.61149,9.99601 L 3.60888,9.98085 L 3.60231,9.95743 L 3.59578,9.94573 L 3.57112,9.92537 L 3.56414,9.91597 L 3.56431,9.89965 L 3.56268,9.89552 L 3.55104,9.882 L 3.54802,9.88086 L 3.54755,9.87902 L 3.53894,9.86917 L 3.52964,9.86208 L 3.51712,9.85983 L 3.51132,9.85732 L 3.49996,9.85804 L 3.48119,9.86178 L 3.47471,9.86317 L 3.45639,9.86117 L 3.4239,9.85069 L 3.39002,9.83816 L 3.37076,9.83086 L 3.35684,9.82584 L 3.34685,9.81759 L 3.32965,9.79879 L 3.32334,9.77675 L 3.32423,9.76135 L 3.32859,9.74594 L 3.33874,9.72592 L 3.34012,9.72109 L 3.35027,9.70521 L 3.3521,9.6974 L 3.3486,9.68522 L 3.33653,9.67606 L 3.31517,9.65774 L 3.30961,9.65752 L 3.29178,9.66193 L 3.27997,9.66174 L 3.27162,9.659 L 3.26657,9.65486 L 3.2635,9.65235 L 3.25606,9.63973 L 3.25344,9.60986 L 3.24972,9.60252 L 3.23973,9.58853 L 3.23229,9.57591 L 3.22696,9.57133 L 3.21604,9.55389 L 3.20791,9.54449 L 3.19488,9.51511 L 3.1863,9.50708 L 3.18097,9.50479 L 3.1629,9.49771 L 3.15456,9.4929 L 3.14922,9.4851 L 3.13621,9.46284 L 3.13085,9.44034 L 3.13337,9.42609 L 3.15179,9.37573 L 3.15362,9.3647 L 3.15291,9.35616 L 3.15149,9.3392 L 3.15192,9.32152 L 3.15375,9.30957 L 3.15834,9.29141 L 3.15717,9.28246 L 3.14998,9.27259 L 3.13168,9.25907 L 3.12635,9.25219 L 3.12216,9.23841 L 3.12189,9.21866 L 3.1237,9.19224 L 3.12092,9.18811 L 3.10143,9.15277 L 3.09214,9.12982 L 3.08817,9.10157 L 3.08354,9.09791 L 3.05625,9.08968 L 3.05139,9.08671 L 3.0426,9.0835 L 3.03543,9.08282 L 3.01878,9.07665 L 3.00814,9.07391 L 2.99427,9.07393 L 2.9841,9.07234 L 2.964,9.07949 L 2.95639,9.09236 L 2.95338,9.09259 L 2.91292,9.08759 L 2.89604,9.0837 L 2.89146,9.08021 L 2.88193,9.07292 L 2.87915,9.06466 L 2.86759,9.06214 L 2.85442,9.06445 L 2.83731,9.06424 L 2.78091,9.0652 L 2.77826,9.05379 L 2.77908,9.05157 L 2.786,9.04488 L 2.78274,9.03732 L 2.78249,9.03181 L 2.77416,9.02608 L 2.77554,9.02379 L 2.77611,9.02365 L 2.78316,9.02193 L 2.78407,9.0194 L 2.78268,9.01619 L 2.77203,9.0107 L 2.77225,9.00749 L 2.7808,9.00563 L 2.78241,9.0031 L 2.77776,8.99484 L 2.77983,8.99162 L 2.78677,8.99068 L 2.7886,8.98769 L 2.78744,8.9854 L 2.78212,8.98266 L 2.78303,8.97829 L 2.78741,8.97414 L 2.78878,8.97023 L 2.78576,8.96404 L 2.77488,8.95718 L 2.77118,8.95283 L 2.7781,8.95074 L 2.78178,8.94522 L 2.77061,8.91884 L 2.76853,8.91701 L 2.76391,8.91611 L 2.75974,8.91222 L 2.75811,8.90785 L 2.75828,8.90466 L 2.75833,8.90372 L 2.76156,8.90302 L 2.77035,8.90483 L 2.77355,8.89472 L 2.76816,8.86718 L 2.75799,8.86491 L 2.75706,8.86353 L 2.75682,8.85963 L 2.75936,8.85495 L 2.76119,8.85158 L 2.75813,8.83 L 2.75879,8.81966 L 2.76338,8.80978 L 2.76106,8.80542 L 2.75979,8.80471 L 2.75574,8.80245 L 2.74488,8.79996 L 2.73932,8.79424 L 2.73769,8.78735 L 2.73027,8.77818 L 2.72841,8.77267 L 2.72921,8.77042 z "
       style="fill:#ffffff;stroke:#000000;stroke-width:0.01"
       id="path7" />
  </g>
</svg>
